HIERARCHY
ROOT Hips
{
	OFFSET 0.000000 71.427986 0.000000
	CHANNELS 6 Xposition Yposition Zposition Xrotation Yrotation Zrotation
	JOINT Pelvis
	{
		OFFSET 0.000000 0.000000 0.000000
		CHANNELS 3 Xrotation Yrotation Zrotation
		JOINT LeftUpLeg
		{
			OFFSET 6.797100 -2.508499 -1.318700
			CHANNELS 3 Xrotation Yrotation Zrotation
			JOINT LeftLeg
			{
				OFFSET 0.069008 -29.241863 0.690200
				CHANNELS 3 Xrotation Yrotation Zrotation
				JOINT LeftFoot
				{
					OFFSET -0.069008 -29.568123 -0.266800
					CHANNELS 3 Xrotation Yrotation Zrotation
					JOINT LeftToeBase
					{
						OFFSET 3.145500 -8.631000 16.059900
						CHANNELS 3 Xrotation Yrotation Zrotation
						End Site
						{
							OFFSET 0.000000 18.501587 0.000000
						}
					}
				}
			}
			JOINT Left_ShortSleeve
			{
				OFFSET 0.265923 -10.480953 1.153800
				CHANNELS 3 Xrotation Yrotation Zrotation
				End Site
				{
					OFFSET 1.725763 19.823879 0.000000
				}
			}
		}
		JOINT RightUpLeg
		{
			OFFSET -6.797100 -2.508499 -1.318700
			CHANNELS 3 Xrotation Yrotation Zrotation
			JOINT RightLeg
			{
				OFFSET -0.082453 -29.241932 0.688000
				CHANNELS 3 Xrotation Yrotation Zrotation
				JOINT RightFoot
				{
					OFFSET 0.082453 -29.568058 -0.264600
					CHANNELS 3 Xrotation Yrotation Zrotation
					JOINT RightToeBase
					{
						OFFSET -3.115300 -8.682800 16.113400
						CHANNELS 3 Xrotation Yrotation Zrotation
						End Site
						{
							OFFSET 0.000000 18.567114 0.000000
						}
					}
				}
			}
			JOINT Right_ShortSleeve
			{
				OFFSET -0.265923 -10.480953 1.153800
				CHANNELS 3 Xrotation Yrotation Zrotation
				End Site
				{
					OFFSET -1.725766 19.823910 0.000000
				}
			}
		}
	}
	JOINT Spine
	{
		OFFSET 0.000000 13.368103 0.470500
		CHANNELS 3 Xrotation Yrotation Zrotation
		JOINT Spine1
		{
			OFFSET 0.147000 13.837402 0.538800
			CHANNELS 3 Xrotation Yrotation Zrotation
			JOINT Spine2
			{
				OFFSET 0.168000 16.242897 -1.435500
				CHANNELS 3 Xrotation Yrotation Zrotation
				JOINT Neck
				{
					OFFSET 0.217200 18.631500 -1.679100
					CHANNELS 3 Xrotation Yrotation Zrotation
					JOINT Head
					{
						OFFSET 0.000000 6.599396 1.385900
						CHANNELS 3 Xrotation Yrotation Zrotation
						JOINT Hat
						{
							OFFSET -0.532200 27.220596 -10.096100
							CHANNELS 3 Xrotation Yrotation Zrotation
							End Site
							{
								OFFSET 0.000000 22.029861 0.000000
							}
						}
						JOINT HairD
						{
							OFFSET -10.777400 17.437393 -1.325900
							CHANNELS 3 Xrotation Yrotation Zrotation
							JOINT HairD1
							{
								OFFSET -3.290299 -11.051193 1.062200
								CHANNELS 3 Xrotation Yrotation Zrotation
								End Site
								{
									OFFSET 0.000000 11.579437 0.000000
								}
							}
						}
						JOINT HairB
						{
							OFFSET -10.777400 17.437393 1.467900
							CHANNELS 3 Xrotation Yrotation Zrotation
							JOINT HairB1
							{
								OFFSET -1.561200 -12.956299 3.590200
								CHANNELS 3 Xrotation Yrotation Zrotation
								End Site
								{
									OFFSET 0.000000 13.534866 0.000000
								}
							}
						}
						JOINT HairA
						{
							OFFSET 9.713100 17.437393 1.467900
							CHANNELS 3 Xrotation Yrotation Zrotation
							JOINT HairA1
							{
								OFFSET 1.561200 -12.956299 3.590200
								CHANNELS 3 Xrotation Yrotation Zrotation
								End Site
								{
									OFFSET 0.000000 13.534866 0.000000
								}
							}
						}
						JOINT HairC
						{
							OFFSET 9.713100 17.437393 -1.325900
							CHANNELS 3 Xrotation Yrotation Zrotation
							JOINT HairC1
							{
								OFFSET 3.290300 -11.051193 1.062200
								CHANNELS 3 Xrotation Yrotation Zrotation
								End Site
								{
									OFFSET 0.000000 11.579437 0.000000
								}
							}
						}
					}
				}
				JOINT LeftShoulder
				{
					OFFSET 5.101800 15.108002 -2.763700
					CHANNELS 3 Xrotation Yrotation Zrotation
					JOINT LeftArm
					{
						OFFSET 9.825497 2.506317 -1.597400
						CHANNELS 3 Xrotation Yrotation Zrotation
						JOINT LeftForeArm
						{
							OFFSET 21.966244 0.000000 0.000000
							CHANNELS 3 Xrotation Yrotation Zrotation
							JOINT LeftHand
							{
								OFFSET 33.879036 0.000000 0.000000
								CHANNELS 3 Xrotation Yrotation Zrotation
								JOINT LeftHandThumb1
								{
									OFFSET 6.715286 -2.359680 3.363841
									CHANNELS 3 Xrotation Yrotation Zrotation
									JOINT LeftHandThumb2
									{
										OFFSET 2.507072 -1.447464 1.447461
										CHANNELS 3 Xrotation Yrotation Zrotation
										JOINT LeftHandThumb3
										{
											OFFSET 2.898338 -1.673355 1.673357
											CHANNELS 3 Xrotation Yrotation Zrotation
											End Site
											{
												OFFSET -0.295959 3.727692 -0.131651
											}
										}
									}
								}
								JOINT LeftHandIndex1
								{
									OFFSET 14.190811 -0.254547 3.840278
									CHANNELS 3 Xrotation Yrotation Zrotation
									JOINT LeftHandIndex2
									{
										OFFSET 3.551727 0.000000 -0.000000
										CHANNELS 3 Xrotation Yrotation Zrotation
										JOINT LeftHandIndex3
										{
											OFFSET 2.894196 0.000000 0.000000
											CHANNELS 3 Xrotation Yrotation Zrotation
											End Site
											{
												OFFSET -1.000603 2.690872 0.366626
											}
										}
									}
								}
								JOINT LeftHandMiddle1
								{
									OFFSET 13.776489 0.000000 0.000000
									CHANNELS 3 Xrotation Yrotation Zrotation
									JOINT LeftHandMiddle2
									{
										OFFSET 3.438232 0.000000 0.000000
										CHANNELS 3 Xrotation Yrotation Zrotation
										JOINT LeftHandMiddle3
										{
											OFFSET 3.691551 0.000000 0.000000
											CHANNELS 3 Xrotation Yrotation Zrotation
											End Site
											{
												OFFSET -1.082298 3.499527 0.457670
											}
										}
									}
								}
								JOINT LeftHandRing1
								{
									OFFSET 13.966164 -0.268127 -3.067488
									CHANNELS 3 Xrotation Yrotation Zrotation
									JOINT LeftHandRing2
									{
										OFFSET 3.162567 0.000000 0.000000
										CHANNELS 3 Xrotation Yrotation Zrotation
										JOINT LeftHandRing3
										{
											OFFSET 3.324348 0.000000 0.000000
											CHANNELS 3 Xrotation Yrotation Zrotation
											End Site
											{
												OFFSET -0.861900 3.184998 0.405154
											}
										}
									}
								}
								JOINT LeftHandPinky1
								{
									OFFSET 13.131393 -0.168503 -5.746925
									CHANNELS 3 Xrotation Yrotation Zrotation
									JOINT LeftHandPinky2
									{
										OFFSET 2.849182 0.000000 0.000000
										CHANNELS 3 Xrotation Yrotation Zrotation
										JOINT LeftHandPinky3
										{
											OFFSET 2.805038 0.000000 0.000000
											CHANNELS 3 Xrotation Yrotation Zrotation
											End Site
											{
												OFFSET -0.882500 2.642609 0.325652
											}
										}
									}
								}
							}
							JOINT Left_Sleeve
							{
								OFFSET 6.592125 -0.646545 0.805568
								CHANNELS 3 Xrotation Yrotation Zrotation
								End Site
								{
									OFFSET -0.000179 20.275787 -0.000000
								}
							}
						}
					}
				}
				JOINT RightShoulder
				{
					OFFSET -5.731700 15.108002 -2.763700
					CHANNELS 3 Xrotation Yrotation Zrotation
					JOINT RightArm
					{
						OFFSET -9.825497 2.506317 -1.597400
						CHANNELS 3 Xrotation Yrotation Zrotation
						JOINT RightForeArm
						{
							OFFSET -21.966242 0.000000 0.000000
							CHANNELS 3 Xrotation Yrotation Zrotation
							JOINT RightHand
							{
								OFFSET -33.879032 0.000000 0.000000
								CHANNELS 3 Xrotation Yrotation Zrotation
								JOINT RightHandThumb1
								{
									OFFSET -6.715286 -2.359680 3.363841
									CHANNELS 3 Xrotation Yrotation Zrotation
									JOINT RightHandThumb2
									{
										OFFSET -2.507072 -1.447464 1.447461
										CHANNELS 3 Xrotation Yrotation Zrotation
										JOINT RightHandThumb3
										{
											OFFSET -2.898338 -1.673355 1.673357
											CHANNELS 3 Xrotation Yrotation Zrotation
											End Site
											{
												OFFSET 0.295959 3.727692 -0.131651
											}
										}
									}
								}
								JOINT RightHandIndex1
								{
									OFFSET -14.190811 -0.254547 3.840278
									CHANNELS 3 Xrotation Yrotation Zrotation
									JOINT RightHandIndex2
									{
										OFFSET -3.551727 0.000000 -0.000000
										CHANNELS 3 Xrotation Yrotation Zrotation
										JOINT RightHandIndex3
										{
											OFFSET -2.894196 0.000000 0.000000
											CHANNELS 3 Xrotation Yrotation Zrotation
											End Site
											{
												OFFSET 1.000603 2.690872 0.366626
											}
										}
									}
								}
								JOINT RightHandMiddle1
								{
									OFFSET -13.776489 0.000000 0.000000
									CHANNELS 3 Xrotation Yrotation Zrotation
									JOINT RightHandMiddle2
									{
										OFFSET -3.438232 0.000000 0.000000
										CHANNELS 3 Xrotation Yrotation Zrotation
										JOINT RightHandMiddle3
										{
											OFFSET -3.691551 0.000000 0.000000
											CHANNELS 3 Xrotation Yrotation Zrotation
											End Site
											{
												OFFSET 1.082298 3.499527 0.457670
											}
										}
									}
								}
								JOINT RightHandRing1
								{
									OFFSET -13.966164 -0.268127 -3.067488
									CHANNELS 3 Xrotation Yrotation Zrotation
									JOINT RightHandRing2
									{
										OFFSET -3.162567 0.000000 0.000000
										CHANNELS 3 Xrotation Yrotation Zrotation
										JOINT RightHandRing3
										{
											OFFSET -3.324348 0.000000 0.000000
											CHANNELS 3 Xrotation Yrotation Zrotation
											End Site
											{
												OFFSET 0.861900 3.184998 0.405154
											}
										}
									}
								}
								JOINT RightHandPinky1
								{
									OFFSET -13.131393 -0.168503 -5.746925
									CHANNELS 3 Xrotation Yrotation Zrotation
									JOINT RightHandPinky2
									{
										OFFSET -2.849182 0.000000 0.000000
										CHANNELS 3 Xrotation Yrotation Zrotation
										JOINT RightHandPinky3
										{
											OFFSET -2.805038 0.000000 0.000000
											CHANNELS 3 Xrotation Yrotation Zrotation
											End Site
											{
												OFFSET 0.882500 2.642609 0.325652
											}
										}
									}
								}
							}
							JOINT Right_Sleeve
							{
								OFFSET -6.592125 -0.646545 0.805568
								CHANNELS 3 Xrotation Yrotation Zrotation
								End Site
								{
									OFFSET 0.000179 20.275787 -0.000000
								}
							}
						}
					}
				}
				JOINT Bind_Right_JacketString
				{
					OFFSET -3.534800 11.969597 7.200700
					CHANNELS 3 Xrotation Yrotation Zrotation
					JOINT Bind_Right_JacketString1
					{
						OFFSET -0.319900 -6.102600 2.794100
						CHANNELS 3 Xrotation Yrotation Zrotation
						End Site
						{
							OFFSET 0.000000 6.719452 0.000000
						}
					}
				}
				JOINT Bind_Left_JacketString
				{
					OFFSET 2.904800 11.969597 7.200700
					CHANNELS 3 Xrotation Yrotation Zrotation
					JOINT Bind_Left_JacketString1
					{
						OFFSET 0.364800 -5.904503 3.186800
						CHANNELS 3 Xrotation Yrotation Zrotation
						End Site
						{
							OFFSET 0.000000 6.719513 0.000000
						}
					}
				}
				JOINT HairE
				{
					OFFSET 5.915200 17.612701 -11.592200
					CHANNELS 3 Xrotation Yrotation Zrotation
					JOINT HairE1
					{
						OFFSET 0.289200 -7.171898 -1.284500
						CHANNELS 3 Xrotation Yrotation Zrotation
						End Site
						{
							OFFSET 0.000000 7.291756 0.000000
						}
					}
				}
				JOINT HairF
				{
					OFFSET -0.864800 17.612701 -11.592200
					CHANNELS 3 Xrotation Yrotation Zrotation
					JOINT HairF1
					{
						OFFSET 0.000000 -14.087097 -2.127501
						CHANNELS 3 Xrotation Yrotation Zrotation
						End Site
						{
							OFFSET 0.000000 14.246841 0.000000
						}
					}
				}
				JOINT HairG
				{
					OFFSET -8.087700 17.612701 -11.592200
					CHANNELS 3 Xrotation Yrotation Zrotation
					JOINT HairG1
					{
						OFFSET -0.293600 -6.081398 -0.910100
						CHANNELS 3 Xrotation Yrotation Zrotation
						End Site
						{
							OFFSET 0.000000 6.156120 0.000000
						}
					}
				}
			}
		}
	}
	JOINT Pouch
	{
		OFFSET 0.000000 4.394501 10.847300
		CHANNELS 3 Xrotation Yrotation Zrotation
		End Site
		{
			OFFSET 0.000000 21.880577 0.000000
		}
	}
	JOINT Bag
	{
		OFFSET -13.229000 4.813004 -0.593300
		CHANNELS 3 Xrotation Yrotation Zrotation
		End Site
		{
			OFFSET 0.000000 21.880577 0.000000
		}
	}
	JOINT OccupyGuyFacialAnim_Joint
	{
		OFFSET 1.000000 -70.206398 -1.655000
		CHANNELS 3 Xrotation Yrotation Zrotation
		End Site
		{
			OFFSET 0.000000 21.880577 0.000000
		}
	}
}
MOTION
Frames: 5
Frame Time: 0.033333
-0.040951 67.626686 0.017397 5.048659 -15.584005 0.097366 -0.000000 0.000000 0.000000 -32.149530 3.468467 8.976356 31.582641 4.743442 1.578282 -3.826242 0.568785 -6.009872 -0.000000 0.000000 -0.000000 0.000002 0.000001 -0.000000 -15.059107 -10.959996 -11.515975 32.881975 -6.406931 1.588954 -20.353899 -2.425481 10.593308 0.000000 -0.000001 -0.000000 -0.000000 -0.000001 -0.000000 23.085906 4.341047 -0.217420 3.699061 1.240287 -0.840910 3.692192 1.313815 -0.845959 -12.698323 1.122656 2.284736 -14.088189 7.830451 -3.299428 -0.000000 0.000000 -0.000000 -0.000000 0.000000 -0.000000 -0.000000 0.000000 -0.000000 -0.000000 0.000000 -0.000000 -0.000001 -0.000000 -0.000000 -0.000000 0.000000 -0.000000 -0.000001 -0.000000 -0.000000 -0.000000 0.000000 -0.000000 -0.000000 0.000000 -0.000000 7.812699 -20.949867 9.748558 -33.643521 -3.123745 -85.447169 0.000023 -42.998315 -4.823085 -17.287135 -10.866517 -12.599032 -7.471920 1.860678 -7.166905 30.987014 27.310520 -4.510886 0.000003 -0.000000 -0.000001 -4.707362 11.366716 -75.214439 -0.816398 3.073977 -46.874649 -0.000001 0.000000 0.000002 1.623363 16.580952 -84.691272 0.018012 0.022040 -72.884867 0.000001 -0.000003 -0.000001 -6.443160 23.132618 -76.210165 0.012871 0.975935 -51.002976 -0.000002 0.000000 -0.000000 -17.098970 22.128957 -43.123164 0.019737 0.027029 -78.662893 0.000000 -0.000001 0.000001 -0.000001 -0.000003 -0.000000 13.916966 27.241171 -23.493069 -43.128772 -5.410805 84.810964 0.000009 58.104549 5.767298 -18.206798 16.096538 8.636272 9.347180 2.810543 -11.364539 16.169078 -43.266001 15.843570 0.000002 -0.000001 -0.000001 17.076793 -0.396555 31.924335 -0.204426 -0.284189 112.811571 -0.000000 0.000002 0.000001 9.205489 -5.035905 102.738073 0.014974 -0.019230 61.018492 0.000001 -0.000001 -0.000001 5.569133 -8.935208 107.329067 0.547987 -0.005788 41.263700 0.000001 -0.000001 0.000001 6.511253 -17.148255 98.228017 0.007412 -0.015754 43.845730 -0.000000 0.000004 -0.000001 -0.000000 -0.000001 0.000002 -0.000002 -0.000000 0.000001 0.000002 0.000000 0.000000 -0.000002 -0.000000 0.000001 -0.000002 -0.000000 0.000001 -0.000002 -0.000000 0.000001 0.000002 0.000000 0.000000 -0.000002 -0.000000 0.000001 -0.000002 -0.000000 0.000001 -0.000002 -0.000000 0.000001 0.000002 0.000000 0.000000 -0.000000 0.000000 0.000000 -0.000000 0.000000 0.000000 -0.000000 0.000000 0.000000 
-0.484572 67.380592 -0.683950 2.474894 -15.878696 0.096490 0.000000 -0.000001 0.000000 -30.301683 3.498444 8.952755 32.079326 4.890599 1.693331 -3.532851 0.625290 -6.653401 0.000000 -0.000000 -0.000000 0.000002 0.000001 0.000001 -15.120039 -12.322383 -12.868141 36.150832 -4.139592 1.963583 -21.831218 -2.132221 9.284411 -0.000000 0.000002 0.000000 0.000001 0.000000 -0.000000 24.375349 4.741991 -0.111616 4.364992 1.339020 -1.081337 4.362027 1.404162 -1.102997 -7.778877 1.398116 0.603881 -16.853193 7.380604 -3.536189 0.000000 0.000000 -0.000000 0.000000 0.000000 -0.000000 0.000000 0.000000 -0.000000 0.000000 0.000000 -0.000000 -0.000001 0.000000 0.000000 0.000000 0.000000 -0.000000 -0.000001 0.000000 0.000000 0.000000 0.000000 -0.000000 0.000000 0.000000 -0.000000 7.834391 -22.364614 9.919228 -32.389980 -7.353313 -78.240657 0.000626 -47.534585 -5.880191 -32.100827 -9.951587 -8.505051 -8.698482 3.167043 -5.431890 22.673378 20.580692 2.149152 -0.000001 0.000002 -0.000002 -4.713772 11.364397 -59.767413 -0.818232 3.072040 -40.714891 -0.000000 -0.000003 0.000001 0.584536 17.081294 -67.306986 0.013253 0.019885 -60.829740 -0.000000 -0.000004 0.000004 -6.450378 23.129835 -59.525918 0.012219 0.975333 -49.080264 -0.000000 -0.000000 -0.000003 -17.102075 22.125209 -32.204205 0.015076 0.025230 -67.184616 0.000001 -0.000002 0.000001 0.000001 0.000003 -0.000000 14.150833 26.916478 -24.701103 -44.100814 -5.416201 84.420879 -0.000056 58.584206 5.389719 -17.845350 15.546166 5.849228 9.347181 2.810542 -11.364537 16.169085 -43.266001 15.843573 0.000001 0.000000 0.000001 17.076793 -0.396556 31.924332 -0.204427 -0.284187 112.811564 -0.000001 0.000002 0.000001 9.205487 -5.035909 102.738073 0.014971 -0.019231 61.018492 -0.000001 0.000001 0.000001 5.569134 -8.935212 107.329074 0.547990 -0.005793 41.263703 -0.000000 0.000001 -0.000001 6.511254 -17.148261 98.228017 0.007411 -0.015750 43.845730 -0.000002 0.000002 0.000001 -0.000000 -0.000001 0.000001 0.000002 -0.000001 0.000000 0.000002 0.000000 -0.000000 0.000002 -0.000001 0.000000 0.000002 -0.000001 0.000000 0.000002 -0.000001 0.000000 0.000002 0.000000 -0.000000 0.000002 -0.000001 0.000000 0.000002 -0.000001 0.000000 0.000002 -0.000001 0.000000 0.000002 0.000000 -0.000000 0.000000 -0.000001 0.000000 0.000000 -0.000001 0.000000 0.000000 -0.000001 0.000000 
-1.065497 67.143936 -1.187992 -1.131214 -16.334051 0.555199 -0.000000 0.000000 -0.000000 -26.933087 3.684368 8.359053 32.268757 5.332826 1.588129 -3.338606 0.698954 -7.385590 -0.000000 0.000000 -0.000000 0.000001 0.000000 0.000000 -14.223950 -13.479039 -14.741047 39.493209 -1.966443 1.687184 -23.598119 -1.881973 8.202553 0.000000 0.000002 -0.000000 0.000000 0.000001 0.000001 23.828874 5.063203 0.013883 5.110028 1.403993 -1.408591 5.111167 1.460437 -1.438522 -0.631397 1.531682 -2.563484 -14.868671 5.147299 -2.137388 -0.000000 -0.000000 0.000000 -0.000000 -0.000000 0.000000 -0.000000 -0.000000 0.000000 -0.000000 -0.000000 0.000000 -0.000000 -0.000000 -0.000000 -0.000000 -0.000000 0.000000 -0.000000 -0.000000 -0.000000 -0.000000 -0.000000 0.000000 -0.000000 -0.000000 0.000000 7.776173 -22.802873 9.650423 -27.940852 -10.931848 -68.126383 0.002367 -50.703247 -10.191868 -41.534657 -7.725988 -5.843599 -10.044469 4.465608 -3.533186 14.314437 13.030701 7.468462 -0.000001 0.000003 0.000000 -4.719589 11.360214 -43.433149 -0.819938 3.069794 -34.228352 -0.000000 -0.000000 -0.000002 -0.766836 16.931286 -48.990010 0.008809 0.016604 -48.100876 0.000003 0.000003 -0.000002 -6.456681 23.124999 -42.004745 0.011562 0.974704 -47.104823 0.000001 0.000000 -0.000000 -17.104450 22.120730 -20.725436 0.010704 0.022409 -55.199475 0.000000 0.000001 0.000003 -0.000001 0.000000 -0.000001 14.470499 26.231232 -26.275196 -43.111048 -9.744389 83.976527 -0.000095 59.440479 7.662345 -16.509967 14.047232 3.171507 9.347179 2.810545 -11.364540 16.169083 -43.266001 15.843571 -0.000000 0.000004 -0.000001 17.076791 -0.396557 31.924335 -0.204429 -0.284188 112.811571 -0.000000 -0.000001 0.000003 9.205486 -5.035905 102.738073 0.014974 -0.019229 61.018478 0.000001 -0.000003 -0.000001 5.569132 -8.935209 107.329067 0.547990 -0.005791 41.263700 0.000001 -0.000003 -0.000003 6.511253 -17.148259 98.228017 0.007410 -0.015752 43.845723 -0.000000 0.000002 -0.000001 0.000001 0.000000 -0.000000 -0.000002 0.000001 -0.000000 0.000001 0.000000 -0.000000 -0.000002 0.000001 -0.000000 -0.000002 0.000001 -0.000000 -0.000002 0.000001 -0.000000 0.000001 0.000000 -0.000000 -0.000002 0.000001 -0.000000 -0.000002 0.000001 -0.000000 -0.000002 0.000001 -0.000000 0.000001 0.000000 -0.000000 -0.000000 0.000000 -0.000000 -0.000000 0.000000 -0.000000 -0.000000 0.000000 -0.000000 
-1.805510 66.935524 -1.458950 -5.695047 -16.734754 1.164825 -0.000000 -0.000000 -0.000000 -22.304017 4.673942 7.735182 32.260875 4.914994 1.111215 -3.359098 0.722981 -7.812592 -0.000000 0.000000 -0.000000 0.000002 0.000000 0.000000 -11.979843 -14.226980 -16.573638 42.587066 -0.632981 0.787711 -25.563472 -1.746701 7.593313 -0.000000 -0.000002 0.000000 -0.000001 0.000002 -0.000000 21.367200 5.007544 0.468610 5.711799 1.342237 -1.889700 5.717298 1.391965 -1.911934 4.411521 1.650598 -4.714855 -6.420970 2.943931 -2.199561 0.000001 -0.000000 0.000000 0.000001 -0.000000 0.000000 0.000001 -0.000000 0.000000 0.000001 -0.000000 0.000000 0.000001 -0.000000 -0.000000 0.000001 -0.000000 0.000000 0.000001 -0.000000 -0.000000 0.000001 -0.000000 0.000000 0.000001 -0.000000 0.000000 7.901564 -22.973580 10.047899 -22.564324 -10.669236 -58.469746 -0.002357 -50.675540 -18.202087 -44.077553 -7.971375 -2.750539 -11.270668 5.534775 -1.806420 6.880908 6.245809 10.885343 0.000001 -0.000001 -0.000001 -4.723597 11.355235 -28.785836 -0.821231 3.067612 -28.362931 -0.000002 -0.000002 0.000001 -1.836609 16.129451 -32.413134 0.005518 0.012875 -36.652506 0.000003 0.000001 -0.000003 -6.460784 23.119251 -26.075822 0.010963 0.974078 -45.229588 -0.000001 -0.000001 -0.000001 -17.105726 22.116378 -10.311555 0.007277 0.019054 -44.177732 -0.000001 0.000000 0.000001 -0.000002 0.000000 -0.000000 14.683862 25.450053 -27.202169 -41.148833 -9.645829 83.299628 -0.000332 57.756851 6.572239 -18.116705 13.009443 1.766054 9.347180 2.810543 -11.364537 16.169085 -43.266001 15.843568 -0.000000 0.000001 0.000000 17.076791 -0.396555 31.924332 -0.204427 -0.284187 112.811571 -0.000000 0.000000 0.000005 9.205485 -5.035905 102.738080 0.014970 -0.019230 61.018492 0.000001 0.000001 -0.000001 5.569131 -8.935209 107.329067 0.547988 -0.005791 41.263703 0.000001 -0.000006 -0.000001 6.511250 -17.148259 98.228017 0.007413 -0.015753 43.845733 0.000000 -0.000000 0.000000 0.000001 0.000001 0.000001 -0.000002 -0.000000 -0.000000 -0.000002 -0.000000 -0.000000 -0.000002 -0.000000 -0.000000 -0.000002 -0.000000 -0.000000 -0.000002 -0.000000 -0.000000 -0.000002 -0.000000 -0.000000 -0.000002 -0.000000 -0.000000 -0.000002 -0.000000 -0.000000 -0.000002 -0.000000 -0.000000 -0.000002 -0.000000 -0.000000 -0.000000 -0.000000 -0.000000 -0.000000 -0.000000 -0.000000 -0.000000 -0.000000 -0.000000 
-2.680735 66.799393 -1.375079 -11.037742 -16.750059 1.377202 -0.000001 0.000001 -0.000000 -16.660664 5.955343 7.384304 32.228207 3.518229 0.531014 -3.735321 0.783659 -8.025002 0.000000 -0.000000 -0.000000 -0.000001 0.000001 0.000000 -7.756243 -14.851992 -17.488751 44.671012 -0.648295 -0.711164 -27.489051 -1.828058 7.741364 -0.000000 0.000001 -0.000000 0.000001 -0.000001 -0.000000 17.242406 4.819644 1.510106 6.305240 1.183501 -2.333888 6.314976 1.232826 -2.333912 4.494667 2.123239 -4.708319 6.802865 1.776158 -3.525760 -0.000000 -0.000000 0.000000 -0.000000 -0.000000 0.000000 -0.000000 -0.000000 0.000000 -0.000000 -0.000000 0.000000 -0.000000 -0.000000 -0.000000 -0.000000 -0.000000 0.000000 -0.000000 -0.000000 -0.000000 -0.000000 -0.000000 0.000000 -0.000000 -0.000000 0.000000 8.024134 -21.411801 11.206899 -18.174882 -11.321006 -53.086897 -0.007890 -47.386531 -25.519953 -40.574066 -7.620871 -1.359472 -12.115314 6.212089 -0.617857 1.462744 1.713486 12.642065 -0.000001 0.000001 -0.000001 -4.725595 11.351165 -18.399307 -0.822045 3.065939 -24.066552 -0.000000 -0.000001 0.000001 -2.244807 15.216164 -20.147023 0.003660 0.009841 -28.438842 -0.000000 -0.000001 -0.000001 -6.462647 23.114409 -14.167801 0.010481 0.973530 -43.607469 -0.000001 -0.000001 -0.000002 -17.106110 22.113041 -2.586780 0.005103 0.016024 -35.589776 -0.000001 0.000001 -0.000001 0.000001 0.000000 -0.000003 14.940745 23.716278 -27.996775 -38.716538 -12.612101 83.832458 -0.000943 54.450917 7.103957 -17.486722 11.432800 3.171349 9.347178 2.810541 -11.364541 16.169078 -43.266007 15.843577 -0.000001 0.000000 0.000001 17.076789 -0.396557 31.924335 -0.204429 -0.284189 112.811571 -0.000001 0.000000 -0.000001 9.205486 -5.035907 102.738073 0.014971 -0.019231 61.018485 0.000001 -0.000002 0.000001 5.569132 -8.935210 107.329067 0.547987 -0.005790 41.263700 0.000000 -0.000001 -0.000002 6.511252 -17.148257 98.228017 0.007414 -0.015754 43.845733 -0.000002 0.000000 -0.000003 0.000002 -0.000000 0.000002 -0.000002 0.000000 -0.000000 -0.000000 -0.000000 0.000001 -0.000002 0.000000 -0.000000 -0.000002 0.000000 -0.000000 -0.000002 0.000000 -0.000000 -0.000000 -0.000000 0.000000 -0.000002 0.000000 -0.000000 -0.000002 0.000000 -0.000000 -0.000002 0.000000 -0.000000 -0.000000 -0.000000 0.000000 -0.000001 0.000001 -0.000000 -0.000001 0.000001 -0.000000 -0.000001 0.000001 -0.000000 
